<svg width="13" height="20" viewBox="0 0 13 20" fill="none" xmlns="http://www.w3.org/2000/svg">
    <path d="M12.9232 17.8991L0.543872 1.60331C0.488673 1.52964 0.411281 1.48523 0.328719 1.47985C0.246158 1.47446 0.165192 1.50855 0.103632 1.57461C0.0420714 1.64066 0.00496016 1.73328 0.000462095 1.83208C-0.00403597 1.93088 0.0244475 2.02777 0.0796465 2.10144L3.09711 6.06985V10.0003C3.09711 10.7581 3.27371 11.5008 3.60707 12.1451C3.94042 12.7893 4.41732 13.3095 4.98417 13.6473C5.55101 13.985 6.18533 14.1268 6.81584 14.0569C7.44634 13.9869 8.04805 13.7078 8.55332 13.2511L9.8044 14.8992C9.03172 15.645 8.09849 16.114 7.11252 16.252C6.12655 16.3899 5.12808 16.1913 4.23245 15.679C3.33683 15.1666 2.58059 14.3616 2.05111 13.3567C1.52162 12.3519 1.2405 11.1882 1.24021 10.0003C1.24021 9.90206 1.2076 9.80786 1.14957 9.7384C1.09153 9.66895 1.01281 9.62993 0.930727 9.62993C0.848647 9.62993 0.769929 9.66895 0.711889 9.7384C0.65385 9.80786 0.621243 9.90206 0.621243 10.0003C0.623024 11.8018 1.20142 13.534 2.23753 14.8409C3.27364 16.1478 4.68874 16.9301 6.19195 17.0269V19.6296C6.19195 19.7279 6.22456 19.8221 6.2826 19.8915C6.34064 19.961 6.41936 20 6.50144 20C6.58352 20 6.66224 19.961 6.72028 19.8915C6.77832 19.8221 6.81092 19.7279 6.81092 19.6296V17.0269C8.05917 16.9509 9.25442 16.3994 10.2222 15.4529L12.459 18.3973C12.4862 18.4339 12.5192 18.4638 12.5561 18.4851C12.5929 18.5064 12.633 18.5187 12.6739 18.5213C12.7148 18.5239 12.7557 18.5168 12.7943 18.5004C12.8329 18.484 12.8683 18.4585 12.8987 18.4256C12.929 18.3926 12.9535 18.3528 12.9709 18.3084C12.9882 18.264 12.998 18.2159 12.9997 18.1669C13.0014 18.118 12.995 18.0691 12.9808 18.0231C12.9666 17.9772 12.9449 17.935 12.917 17.8991H12.9232ZM6.50144 13.3335C5.76272 13.3335 5.05425 12.9823 4.53189 12.3572C4.00954 11.7321 3.71608 10.8843 3.71608 10.0003V6.88464L8.13397 12.7002C7.65929 13.1122 7.08783 13.3339 6.50144 13.3335ZM3.60467 1.93386C3.99385 1.17945 4.57806 0.597567 5.26863 0.276508C5.95921 -0.0445507 6.71846 -0.0872579 7.43115 0.154867C8.14385 0.396993 8.77109 0.910733 9.21769 1.61813C9.66429 2.32552 9.90586 3.18795 9.90576 4.07453V9.66974C9.90576 9.76797 9.87315 9.86217 9.81511 9.93163C9.75707 10.0011 9.67836 10.0401 9.59628 10.0401C9.5142 10.0401 9.43548 10.0011 9.37744 9.93163C9.3194 9.86217 9.28679 9.76797 9.28679 9.66974V4.07453C9.28697 3.34899 9.08932 2.64319 8.72385 2.06429C8.35838 1.48538 7.84506 1.06499 7.2618 0.866925C6.67854 0.668863 6.05721 0.703949 5.49213 0.966859C4.92705 1.22977 4.44908 1.70614 4.13079 2.32366C4.10991 2.36624 4.08212 2.4034 4.04907 2.43295C4.01601 2.46249 3.97835 2.48383 3.9383 2.4957C3.89825 2.50758 3.85663 2.50975 3.81587 2.50209C3.77511 2.49443 3.73604 2.4771 3.70096 2.45111C3.66588 2.42512 3.6355 2.391 3.6116 2.35075C3.5877 2.3105 3.57076 2.26494 3.56179 2.21675C3.55282 2.16855 3.55199 2.1187 3.55936 2.07012C3.56672 2.02154 3.58212 1.97521 3.60467 1.93386ZM11.4044 12.29C11.6422 11.5602 11.7637 10.7836 11.7627 10.0003C11.7627 9.90206 11.7953 9.80786 11.8533 9.7384C11.9113 9.66895 11.9901 9.62993 12.0721 9.62993C12.1542 9.62993 12.2329 9.66895 12.291 9.7384C12.349 9.80786 12.3816 9.90206 12.3816 10.0003C12.3829 10.8758 12.2469 11.7439 11.9808 12.5595C11.9581 12.6289 11.9184 12.6885 11.8669 12.7304C11.8154 12.7724 11.7545 12.7948 11.6923 12.7947C11.6539 12.795 11.6158 12.7865 11.5801 12.7697C11.5036 12.7339 11.4422 12.6633 11.4093 12.5734C11.3763 12.4834 11.3746 12.3815 11.4044 12.29Z" fill="#4DBA87"/>
    </svg>
    