<svg width="890" height="858" viewBox="0 0 890 858" fill="none" xmlns="http://www.w3.org/2000/svg">
<rect x="74" y="52" width="790" height="578" rx="20" fill="white"/>
<path fill-rule="evenodd" clip-rule="evenodd" d="M890 20C890 8.95431 881.046 0 870 0H20C8.95431 0 0 8.95429 0 20V837.158C0 848.204 8.9543 857.158 20 857.158H870C881.046 857.158 890 848.204 890 837.158V20ZM246.989 516C258.034 516 266.989 507.046 266.989 496V326.795C267.131 312.733 269.83 300.73 275.085 290.787C280.483 280.702 287.869 273.031 297.244 267.776C306.761 262.52 317.699 259.892 330.057 259.892C348.523 259.892 362.869 265.503 373.097 276.724C383.466 287.946 388.58 303.642 388.438 323.812V496C388.438 507.046 397.392 516 408.437 516H459.205C470.25 516 479.205 507.046 479.205 496V307.619C479.347 282.051 474.659 260.105 465.142 241.781C455.767 223.315 442.557 209.182 425.511 199.381C408.608 189.438 388.793 184.466 366.065 184.466C341.207 184.466 320.54 190.006 304.062 201.085C288.002 211.746 276.26 226.388 268.836 245.011C268.487 245.886 267.645 246.469 266.704 246.469V246.469C265.449 246.469 264.432 245.452 264.432 244.197V99.6364C264.432 88.5907 255.478 79.6364 244.432 79.6364H196.222C185.176 79.6364 176.222 88.5907 176.222 99.6364V496C176.222 507.046 185.176 516 196.222 516H246.989ZM559.503 188.727C548.457 188.727 539.503 197.682 539.503 208.727V496C539.503 507.046 548.457 516 559.503 516H610.27C621.316 516 630.27 507.046 630.27 496V330.844C630.27 317.491 633.253 305.702 639.219 295.474C645.327 285.247 653.565 277.293 663.935 271.611C674.446 265.787 686.378 262.875 699.73 262.875C705.98 262.875 712.869 263.372 720.398 264.366V264.366C729.305 265.543 738.082 258.733 738.082 249.748V201.293C738.082 193.031 732.447 185.78 724.233 184.892V184.892C718.977 184.324 714.077 184.04 709.531 184.04C691.207 184.04 675.014 189.295 660.952 199.807C647.214 209.937 637.34 224.811 631.329 244.43C631.076 245.257 630.315 245.83 629.45 245.83V245.83C628.373 245.83 627.5 244.957 627.5 243.88V208.727C627.5 197.682 618.546 188.727 607.5 188.727H559.503Z" fill="#313391"/>
<path d="M171.866 695V596.818H197.818V614.141H198.969C201.014 608.388 204.423 603.849 209.196 600.526C213.969 597.202 219.679 595.54 226.327 595.54C233.06 595.54 238.791 597.223 243.521 600.589C248.251 603.913 251.405 608.43 252.982 614.141H254.004C256.007 608.516 259.629 604.02 264.871 600.653C270.155 597.244 276.398 595.54 283.599 595.54C292.761 595.54 300.197 598.459 305.908 604.297C311.661 610.092 314.537 618.317 314.537 628.97V695H287.371V634.339C287.371 628.885 285.922 624.794 283.024 622.067C280.126 619.339 276.504 617.976 272.158 617.976C267.214 617.976 263.358 619.553 260.588 622.706C257.818 625.817 256.433 629.929 256.433 635.043V695H230.034V633.764C230.034 628.949 228.649 625.114 225.879 622.259C223.152 619.403 219.551 617.976 215.077 617.976C212.051 617.976 209.324 618.743 206.895 620.277C204.509 621.768 202.612 623.878 201.206 626.605C199.8 629.29 199.097 632.443 199.097 636.065V695H171.866ZM364.043 696.854C357.779 696.854 352.197 695.767 347.296 693.594C342.396 691.378 338.518 688.118 335.663 683.814C332.85 679.467 331.444 674.055 331.444 667.578C331.444 662.124 332.445 657.543 334.448 653.835C336.451 650.128 339.178 647.145 342.63 644.886C346.082 642.628 350.002 640.923 354.391 639.773C358.823 638.622 363.468 637.812 368.326 637.344C374.036 636.747 378.638 636.193 382.133 635.682C385.627 635.128 388.163 634.318 389.739 633.253C391.316 632.187 392.104 630.611 392.104 628.523V628.139C392.104 624.091 390.826 620.959 388.269 618.743C385.755 616.527 382.175 615.419 377.531 615.419C372.63 615.419 368.731 616.506 365.833 618.679C362.935 620.81 361.018 623.494 360.08 626.733L334.896 624.688C336.174 618.722 338.688 613.565 342.438 609.219C346.188 604.83 351.025 601.463 356.948 599.119C362.914 596.733 369.817 595.54 377.658 595.54C383.113 595.54 388.333 596.179 393.319 597.457C398.347 598.736 402.8 600.717 406.678 603.402C410.599 606.087 413.688 609.538 415.947 613.757C418.205 617.933 419.335 622.94 419.335 628.778V695H393.511V681.385H392.744C391.167 684.453 389.058 687.159 386.415 689.503C383.773 691.804 380.599 693.615 376.891 694.936C373.184 696.214 368.901 696.854 364.043 696.854ZM371.842 678.061C375.847 678.061 379.384 677.273 382.452 675.696C385.521 674.077 387.928 671.903 389.675 669.176C391.423 666.449 392.296 663.359 392.296 659.908V649.489C391.444 650.043 390.272 650.554 388.781 651.023C387.332 651.449 385.691 651.854 383.859 652.237C382.026 652.578 380.194 652.898 378.362 653.196C376.529 653.452 374.867 653.686 373.376 653.899C370.18 654.368 367.388 655.114 365.002 656.136C362.616 657.159 360.762 658.544 359.441 660.291C358.12 661.996 357.46 664.126 357.46 666.683C357.46 670.391 358.802 673.224 361.487 675.185C364.214 677.102 367.665 678.061 371.842 678.061ZM467.69 638.239V695H440.46V596.818H466.412V614.141H467.562C469.736 608.43 473.379 603.913 478.493 600.589C483.607 597.223 489.807 595.54 497.094 595.54C503.912 595.54 509.857 597.031 514.928 600.014C519.999 602.997 523.94 607.259 526.753 612.798C529.565 618.295 530.972 624.858 530.972 632.486V695H503.741V637.344C503.784 631.335 502.25 626.648 499.139 623.281C496.028 619.872 491.746 618.168 486.291 618.168C482.626 618.168 479.388 618.956 476.575 620.533C473.805 622.109 471.632 624.411 470.055 627.436C468.521 630.419 467.733 634.02 467.69 638.239ZM597.177 696.918C587.078 696.918 578.385 694.872 571.098 690.781C563.853 686.648 558.271 680.81 554.35 673.267C550.43 665.682 548.47 656.712 548.47 646.357C548.47 636.257 550.43 627.393 554.35 619.766C558.271 612.138 563.789 606.193 570.906 601.932C578.065 597.67 586.46 595.54 596.091 595.54C602.568 595.54 608.598 596.584 614.18 598.672C619.805 600.717 624.706 603.807 628.882 607.94C633.101 612.074 636.382 617.273 638.726 623.537C641.069 629.759 642.241 637.045 642.241 645.398V652.876H559.336V636.001H616.609C616.609 632.081 615.757 628.608 614.052 625.582C612.348 622.557 609.983 620.192 606.957 618.487C603.974 616.74 600.501 615.866 596.538 615.866C592.404 615.866 588.74 616.825 585.544 618.743C582.39 620.618 579.919 623.153 578.129 626.349C576.339 629.503 575.423 633.018 575.38 636.896V652.94C575.38 657.798 576.275 661.996 578.065 665.533C579.897 669.07 582.475 671.797 585.799 673.714C589.123 675.632 593.065 676.591 597.625 676.591C600.65 676.591 603.42 676.165 605.934 675.312C608.449 674.46 610.6 673.182 612.39 671.477C614.18 669.773 615.544 667.685 616.481 665.213L641.666 666.875C640.387 672.926 637.767 678.21 633.804 682.727C629.883 687.202 624.812 690.696 618.591 693.21C612.412 695.682 605.274 696.918 597.177 696.918ZM660.011 596.818H687.241V699.858C687.241 707.443 685.75 713.58 682.767 718.267C679.784 722.955 675.501 726.385 669.919 728.558C664.379 730.732 657.752 731.818 650.039 731.818C649.102 731.818 648.207 731.797 647.355 731.754C646.46 731.754 645.522 731.733 644.542 731.69V710.405C645.267 710.447 645.906 710.469 646.46 710.469C646.971 710.511 647.525 710.533 648.122 710.533C652.511 710.533 655.579 709.595 657.326 707.72C659.116 705.888 660.011 703.118 660.011 699.411V596.818ZM673.562 584.162C669.556 584.162 666.105 582.82 663.207 580.135C660.309 577.408 658.86 574.148 658.86 570.355C658.86 566.605 660.309 563.388 663.207 560.703C666.105 557.976 669.556 556.612 673.562 556.612C677.653 556.612 681.126 557.976 683.981 560.703C686.879 563.388 688.328 566.605 688.328 570.355C688.328 574.148 686.879 577.408 683.981 580.135C681.126 582.82 677.653 584.162 673.562 584.162ZM737.051 696.854C730.787 696.854 725.205 695.767 720.304 693.594C715.403 691.378 711.526 688.118 708.67 683.814C705.858 679.467 704.452 674.055 704.452 667.578C704.452 662.124 705.453 657.543 707.456 653.835C709.459 650.128 712.186 647.145 715.638 644.886C719.089 642.628 723.01 640.923 727.399 639.773C731.831 638.622 736.476 637.812 741.334 637.344C747.044 636.747 751.646 636.193 755.141 635.682C758.635 635.128 761.17 634.318 762.747 633.253C764.324 632.187 765.112 630.611 765.112 628.523V628.139C765.112 624.091 763.834 620.959 761.277 618.743C758.763 616.527 755.183 615.419 750.538 615.419C745.638 615.419 741.739 616.506 738.841 618.679C735.943 620.81 734.026 623.494 733.088 626.733L707.903 624.688C709.182 618.722 711.696 613.565 715.446 609.219C719.196 604.83 724.033 601.463 729.956 599.119C735.922 596.733 742.825 595.54 750.666 595.54C756.121 595.54 761.341 596.179 766.327 597.457C771.355 598.736 775.808 600.717 779.686 603.402C783.607 606.087 786.696 609.538 788.955 613.757C791.213 617.933 792.342 622.94 792.342 628.778V695H766.518V681.385H765.751C764.175 684.453 762.065 687.159 759.423 689.503C756.781 691.804 753.607 693.615 749.899 694.936C746.192 696.214 741.909 696.854 737.051 696.854ZM744.849 678.061C748.855 678.061 752.392 677.273 755.46 675.696C758.528 674.077 760.936 671.903 762.683 669.176C764.43 666.449 765.304 663.359 765.304 659.908V649.489C764.452 650.043 763.28 650.554 761.788 651.023C760.339 651.449 758.699 651.854 756.866 652.237C755.034 652.578 753.202 652.898 751.369 653.196C749.537 653.452 747.875 653.686 746.384 653.899C743.188 654.368 740.396 655.114 738.01 656.136C735.624 657.159 733.77 658.544 732.449 660.291C731.128 661.996 730.467 664.126 730.467 666.683C730.467 670.391 731.81 673.224 734.494 675.185C737.222 677.102 740.673 678.061 744.849 678.061Z" fill="white"/>
</svg>
